<svg width="9" height="15" viewBox="0 0 9 15" fill="none" xmlns="http://www.w3.org/2000/svg">
<path d="M3.632 0.36H5.408V2.584L5.104 2.92V11.656L5.408 12.056V14.92H3.632V12.04L3.936 11.688V3.016L3.632 2.712V0.36ZM4.448 11.368C4.90667 11.368 5.27467 11.3307 5.552 11.256C5.82933 11.1813 6.032 11.064 6.16 10.904C6.288 10.7333 6.352 10.52 6.352 10.264C6.352 10.04 6.29867 9.85867 6.192 9.72C6.08533 9.57067 5.93067 9.448 5.728 9.352C5.52533 9.24533 5.26933 9.144 4.96 9.048C4.66133 8.952 4.30933 8.85067 3.904 8.744C3.392 8.60533 2.928 8.44533 2.512 8.264C2.096 8.072 1.73867 7.84267 1.44 7.576C1.14133 7.30933 0.906667 6.97867 0.736 6.584C0.576 6.18933 0.496 5.72533 0.496 5.192C0.496 4.43467 0.656 3.81067 0.976 3.32C1.30667 2.81867 1.776 2.44533 2.384 2.2C3.00267 1.95467 3.744 1.832 4.608 1.832C5.184 1.832 5.71733 1.88 6.208 1.976C6.69867 2.072 7.12533 2.18933 7.488 2.328C7.85067 2.456 8.128 2.59467 8.32 2.744V4.728H6.192V3.096C6.33067 3.07467 6.45333 3.10133 6.56 3.176C6.66667 3.24 6.752 3.32533 6.816 3.432C6.89067 3.528 6.93867 3.624 6.96 3.72C6.98133 3.816 6.976 3.88 6.944 3.912C6.74133 3.74133 6.51733 3.608 6.272 3.512C6.02667 3.416 5.76533 3.352 5.488 3.32C5.21067 3.27733 4.912 3.256 4.592 3.256C4.12267 3.256 3.74933 3.29333 3.472 3.368C3.20533 3.432 3.01333 3.53867 2.896 3.688C2.77867 3.82667 2.72 4.00267 2.72 4.216C2.72 4.42933 2.77867 4.6 2.896 4.728C3.01333 4.856 3.168 4.96267 3.36 5.048C3.552 5.12267 3.76 5.18667 3.984 5.24C4.21867 5.29333 4.45867 5.352 4.704 5.416C5.35467 5.58667 5.92533 5.77333 6.416 5.976C6.90667 6.17867 7.32267 6.41867 7.664 6.696C8.00533 6.96267 8.26133 7.29333 8.432 7.688C8.61333 8.072 8.704 8.54133 8.704 9.096C8.704 9.91733 8.544 10.6053 8.224 11.16C7.91467 11.704 7.45067 12.1147 6.832 12.392C6.21333 12.6693 5.44 12.808 4.512 12.808C3.85067 12.808 3.23733 12.7493 2.672 12.632C2.10667 12.5147 1.62133 12.376 1.216 12.216C0.810667 12.0453 0.490667 11.8853 0.256 11.736V9.496H2.592V11.32C2.45333 11.3307 2.31467 11.2987 2.176 11.224C2.03733 11.1387 1.91467 11.0373 1.808 10.92C1.712 10.8027 1.63733 10.6907 1.584 10.584C1.53067 10.4773 1.51467 10.4133 1.536 10.392C1.70667 10.5307 1.92 10.68 2.176 10.84C2.44267 10.9893 2.76267 11.1173 3.136 11.224C3.50933 11.32 3.94667 11.368 4.448 11.368Z" fill="#205926"/>
</svg>
