<svg width="48" height="48" viewBox="0 0 48 48" fill="none" xmlns="http://www.w3.org/2000/svg">
<rect x="47.5" y="47.5" width="47" height="47" transform="rotate(-180 47.5 47.5)" fill="white"/>
<rect x="47.5" y="47.5" width="47" height="47" transform="rotate(-180 47.5 47.5)" stroke="#DEDEDE"/>
<path d="M25.3306 31.5557C25.3456 31.5708 25.8036 31.6856 26.3485 31.8108C26.8934 31.936 27.3451 32.0194 27.3524 31.9961C27.3596 31.9728 27.416 31.5946 27.4776 31.1556C27.6015 30.2741 27.9013 29.2449 28.2217 28.6013C29.2204 26.5952 31.0123 25.267 33.1856 24.9218L33.739 24.8338V23.9477V23.0614L33.2374 22.9773C29.9511 22.4259 27.8086 19.9687 27.4078 16.2915C27.3817 16.0514 27.3504 15.855 27.3383 15.855C27.2275 15.855 25.391 16.2976 25.3563 16.3326C25.3312 16.358 25.3498 16.5831 25.3979 16.8328C25.9293 19.5976 27.4509 21.8475 29.4255 22.7882L29.8992 23.0139L20.159 23.0315L14 23.0427V24.8362L20.1749 24.8474L29.892 24.8652L29.2941 25.1682C27.7427 25.9541 26.5145 27.4958 25.7913 29.5652C25.5852 30.1547 25.2742 31.4988 25.3306 31.5557Z" fill="#205926"/>
</svg>
